M48
INCH
T01C0.0200
T02C0.0300
T03C0.2760
T04C0.0400
T05C0.0500
T06C0.0320
%
T01
X+036500Y+002750
X+038500Y+002750
X+011550Y-013650
X+045150Y+003350
X+045150Y+004350
X+045150Y+005350
X+050000Y+006350
X+050000Y+007350
X+050000Y+008350
X+010900Y-004500
X+010500Y-008150
X+023800Y+005250
X+023700Y+004650
X+010550Y-011750
X+027500Y+001700
X+027200Y+001200
X+027500Y+000700
X+027200Y+000200
X+027500Y-000300
X+027200Y-000800
X+027500Y-001300
X+040450Y+007050
X+040800Y+007550
X+040450Y+008050
X+040500Y+002700
X+040000Y+002700
X+008900Y+000500
X+009400Y+000500
T02
X+005722Y+009025
X+006722Y+009025
X+007722Y+009025
X+008722Y+009025
X+009722Y+009025
X+010722Y+009025
X+011722Y+009025
X+012722Y+009025
X+013722Y+009025
X+014722Y+009025
X+015722Y+009025
X+016722Y+009025
X+017722Y+009025
X+018722Y+009025
X+019722Y+009025
X+020722Y+009025
X+028500Y-004300
X+029500Y-004300
X+030500Y-004300
X+031500Y-004300
X+032500Y-004300
X+033500Y-004300
X+034500Y-004300
X+035500Y-004300
X+036500Y-004300
X+037500Y-004300
X+038500Y-004300
X+039500Y-004300
X+040500Y-004300
X+041500Y-004300
X+042500Y-004300
X+043500Y-004300
X+044500Y-004300
X+045500Y-004300
X+046500Y-004300
X+047500Y-004300
X+047500Y+001700
X+046500Y+001700
X+045500Y+001700
X+044500Y+001700
X+043500Y+001700
X+042500Y+001700
X+041500Y+001700
X+040500Y+001700
X+039500Y+001700
X+038500Y+001700
X+037500Y+001700
X+036500Y+001700
X+035500Y+001700
X+034500Y+001700
X+033500Y+001700
X+032500Y+001700
X+031500Y+001700
X+030500Y+001700
X+029500Y+001700
X+028500Y+001700
X+041500Y+005750
X+041500Y+004750
X+041500Y+003750
X+041500Y+002700
X+040500Y-008250
X+040500Y-006250
X+041500Y-006250
X+041500Y-007250
X+041500Y-008250
X+041500Y-009250
X+008900Y+001500
X+009900Y+001500
X+010900Y+001500
X+011900Y+001500
X+011900Y+004500
X+010900Y+004500
X+009900Y+004500
X+008900Y+004500
X+008900Y+005500
X+009900Y+005500
X+037500Y-007250
X+036500Y-007250
X+036500Y-006250
X+037500Y-006250
T03
X+003428Y-016442
X+003428Y+012690
X+051853Y+012690
X+051853Y-016442
T04
X+017102Y-011750
X+018102Y-011750
X+019102Y-011750
X+020102Y-011750
X+021102Y-011750
X+022102Y-011750
X+023102Y-011750
X+024102Y-011750
X+025102Y-011750
X+026102Y-011750
X+027102Y-011750
X+028102Y-011750
X+029102Y-011750
X+030102Y-011750
X+031102Y-011750
X+032102Y-011750
X+033102Y-011750
X+034102Y-011750
X+035102Y-011750
X+036102Y-011750
X+037102Y-011750
X+038102Y-011750
X+010900Y-002500
X+011900Y-002500
X+010900Y-003500
X+011900Y-003500
X+012900Y-002500
X+010900Y+000500
X+011900Y+000500
X+012900Y+000500
X+012900Y-000500
X+011900Y-000500
X+010900Y-000500
X+011900Y-004500
X+012900Y-004500
X+010900Y-005700
X+011900Y-005700
T05
X+008550Y-004500
X+008550Y-005500
X+008550Y-006500
X+008550Y-007500
X+008550Y-008500
X+008550Y-009500
X+011550Y-015650
X+010550Y-015650
X+009550Y-015650
X+008550Y-015650
X+007550Y-015650
X+006550Y-015650
X+003350Y+009350
X+003350Y+008350
X+003350Y+007350
X+003350Y+006350
X+003350Y+005350
X+003350Y+004350
X+003350Y+003350
X+003350Y+002350
X+003350Y+001350
X+003350Y+000350
X+003350Y-000650
X+003350Y-001650
X+051950Y+009350
X+051950Y+008350
X+051950Y+007350
X+051950Y+006350
X+051950Y+005350
X+051950Y+004350
X+051950Y+003350
X+051950Y+002350
X+051950Y+001350
X+051950Y+000350
X+051950Y-000650
X+051950Y-001650
X+046930Y-011750
X+045930Y-011750
X+044930Y-011750
X+043930Y-011750
X+042930Y-011750
X+041930Y-011750
X+052930Y-011750
X+051930Y-011750
X+050930Y-011750
X+049930Y-011750
X+048930Y-011750
X+047930Y-011750
T06
X+038300Y+004650
X+038650Y+005250
M30
